# xmcd
#
# Track frame offsets:
#   150
#   21708
#   41346
#   63528
#   81872
#   99993
#   118334
#   138305
#   158450
#   179055
#   193301
#   211504
#   229229
#   246224
#   266822
#   281164
#   294481
#   311975
#   329822
#
# Disc length: 4575 seconds
#
# Revision: 0
# Processed by: cddbd v1.5.2PL0 Copyright (c) Steve Scherf et al.
# Submitted via: GXTranscoder 2.0.1939
#
DISCID=2e11dd13
DTITLE=mix - mix
DYEAR=1900
DGENRE=Alternative
TTITLE0=dan za danom proci ce godine
TTITLE1=dobro jutro rekoh zori
TTITLE2=dovidjenja drustvo staro
TTITLE3=dajte mi da zivim
TTITLE4=ljubicu te, nece dugo proci
TTITLE5=ljubila je prvi put
TTITLE6=na kafu nam ne dolazis vise
TTITLE7=sutra ti je rodjendan
TTITLE8=u svanuce ne idem od kuce
TTITLE9=volim te bas takvu
TTITLE10=zivela ljubav
TTITLE11=nasao sam pravu
TTITLE12=sam u sobi u dalekom Svetu
TTITLE13=nnnnnnnnnxxx
TTITLE14=nnxxxxxx
TTITLE15=kkkkkkkkkkkk
TTITLE16=hhhhhhkkkkkkkkkk
TTITLE17=hghjm
TTITLE18=bhn
EXTD=
EXTT0=
EXTT1=
EXTT2=
EXTT3=
EXTT4=
EXTT5=
EXTT6=
EXTT7=
EXTT8=
EXTT9=
EXTT10=
EXTT11=
EXTT12=
EXTT13=
EXTT14=
EXTT15=
EXTT16=
EXTT17=
EXTT18=
PLAYORDER=
